<?xml version="1.0" encoding="utf-8"?>
<!-- Generator: Adobe Illustrator 16.0.0, SVG Export Plug-In . SVG Version: 6.00 Build 0)  -->
<!DOCTYPE svg PUBLIC "-//W3C//DTD SVG 1.1//EN" "http://www.w3.org/Graphics/SVG/1.1/DTD/svg11.dtd">
<svg version="1.1" id="Layer_1" xmlns="http://www.w3.org/2000/svg" xmlns:xlink="http://www.w3.org/1999/xlink" x="0px" y="0px"
	 width="443.297px" height="84.26px" viewBox="0 0 443.297 84.26" enable-background="new 0 0 443.297 84.26" xml:space="preserve">
<g>
	<path fill="#231F20" d="M0,82.939V0h30.14v56.32h25.3v26.619H0z"/>
	<path fill="#231F20" d="M63.91,82.939V0h30.14v82.939H63.91z"/>
	<path fill="#231F20" d="M159.39,0h31.46l-32.12,82.939h-25.521L101.089,0h31.46l11,37.73c1.393,4.693,2.091,8.799,2.091,12.319
		h0.659c0-3.521,0.696-7.626,2.091-12.319L159.39,0z"/>
	<path fill="#231F20" d="M197.119,82.939V0h55.77v22.66h-25.41v7.92h23.211v21.561h-23.211v8.139h26.291v22.66H197.119z"/>
	<path fill="#231F20" d="M312.176,82.939V0h30.141v82.939H312.176z"/>
	<path fill="#231F20" d="M350.566,26.949V0h63.359v26.949l-16.609-0.77v56.76h-30.141V26.18L350.566,26.949z"/>
	<path fill="#231F20" d="M415.467,60.5c3.301-2.566,7.111-3.85,11.439-3.85c4.326,0,8.141,1.283,11.441,3.85
		c3.299,2.568,4.949,5.939,4.949,10.12c0,4.107-1.65,7.407-4.949,9.899c-3.301,2.492-7.115,3.74-11.441,3.74
		c-4.328,0-8.139-1.248-11.439-3.74s-4.949-5.792-4.949-9.899C410.518,66.439,412.166,63.068,415.467,60.5z"/>
</g>
</svg>
