<?xml version="1.0" encoding="utf-8"?>
<!-- Generator: Adobe Illustrator 16.0.0, SVG Export Plug-In . SVG Version: 6.00 Build 0)  -->
<!DOCTYPE svg PUBLIC "-//W3C//DTD SVG 1.1//EN" "http://www.w3.org/Graphics/SVG/1.1/DTD/svg11.dtd">
<svg version="1.1" id="Layer_1" xmlns="http://www.w3.org/2000/svg" xmlns:xlink="http://www.w3.org/1999/xlink" x="0px" y="0px"
	 width="524px" height="629.32px" viewBox="0 0 524 629.32" enable-background="new 0 0 524 629.32" xml:space="preserve">
<g>
	<polygon fill="#231F20" points="75.757,545.06 45.617,545.06 45.617,628 101.057,628 101.057,601.38 75.757,601.38 	"/>
	<rect x="109.527" y="545.06" fill="#231F20" width="30.14" height="82.939"/>
	<path fill="#231F20" d="M194.007,582.791c-1.395,4.693-2.091,8.799-2.091,12.319h-0.659c0-3.521-0.698-7.626-2.091-12.319
		l-11-37.73h-31.46L178.827,628h25.521l32.12-82.939h-31.46L194.007,582.791z"/>
	<polygon fill="#231F20" points="273.096,597.201 296.307,597.201 296.307,575.64 273.096,575.64 273.096,567.72 298.506,567.72 
		298.506,545.06 242.736,545.06 242.736,628 299.387,628 299.387,605.339 273.096,605.339 	"/>
	<rect x="357.793" y="545.06" fill="#231F20" width="30.141" height="82.939"/>
	<polygon fill="#231F20" points="459.543,545.06 396.184,545.06 396.184,572.009 412.793,571.24 412.793,628 442.934,628 
		442.934,571.24 459.543,572.009 	"/>
	<path fill="#231F20" d="M483.965,605.56c-3.301-2.566-7.115-3.85-11.441-3.85c-4.328,0-8.139,1.283-11.439,3.85
		c-3.301,2.568-4.949,5.939-4.949,10.12c0,4.107,1.648,7.407,4.949,9.899s7.111,3.74,11.439,3.74c4.326,0,8.141-1.248,11.441-3.74
		c3.299-2.492,4.949-5.792,4.949-9.899C488.914,611.5,487.264,608.128,483.965,605.56z"/>
	<path fill="#231F20" d="M469,0H55C24.624,0,0,24.625,0,55v373c0,30.376,24.624,55,55,55h414c30.376,0,55-24.624,55-55V55
		C524,24.625,499.376,0,469,0z M301.666,403.388h-53.175v-24.885h7.976v-45.399h-7.976V308.41h44.06v70.094h9.115V403.388z
		 M253.809,280.675c0-8.737,7.217-19.375,20.511-19.375c13.104,0,20.89,10.638,20.89,19.375c0,10.448-7.406,19.187-20.89,19.187
		C262.355,299.862,253.809,289.794,253.809,280.675z M476.004,403.388h-48.237v-46.539c0-9.118,1.709-23.555-7.217-23.555
		c-8.166,0-10.065,5.698-10.065,13.867v30.772h11.395v25.454h-49.188v-48.439c0-15.387-0.379-21.654-7.976-21.654
		c-6.077,0-8.546,3.609-8.546,11.396v33.812h11.395v24.885H311.16v-24.885h7.977v-44.83h-7.977v-25.074h35.894l4.179,11.208
		c3.038-3.608,11.773-13.866,23.738-13.866c19.182,0,25.259,9.117,28.297,13.676c5.888-6.648,14.813-13.676,27.918-13.676
		c30.766,0,35.514,22.414,35.514,45.589v26.214h9.305V403.388z M476.689,93.149v9.964c0,5.086-3.32,9.21-7.418,9.21h-8.304
		L304,272.812c-1.345-4.377-3.771-8.534-7.091-12.009c-5.855-6.128-13.878-9.503-22.59-9.503c-8.83,0-16.852,3.418-22.586,9.625
		c-5.036,5.451-7.925,12.65-7.925,19.75c0,6.232,2.37,12.549,6.583,17.734h-1.9h-10v10v24.694v6.685L135.666,444.92
		c-0.994,1.012-1.844,1.435-2.615,1.485c-0.54,0.201-1.1,0.322-1.678,0.322H92.894c-8.919-0.371-20.03-1.097-20.772-17.067V112.323
		H51.741c-4.097,0-7.418-4.124-7.418-9.21V56.648c0-5.086,3.321-9.21,7.418-9.21h168.639c4.097,0,7.418,4.124,7.418,9.21v46.465
		c0,5.086-3.321,9.21-7.418,9.21h-14.866l-0.389,109.731l-0.647,2.098l0.681-0.759l109.083-111.07h-13.609
		c-4.098,0-7.418-4.124-7.418-9.21V56.648c0-5.086,3.32-9.21,7.418-9.21h168.639c4.098,0,7.418,4.124,7.418,9.21v34.853
		C476.754,92.029,476.751,92.582,476.689,93.149z"/>
</g>
</svg>
