<?xml version="1.0" encoding="utf-8"?>
<!-- Generator: Adobe Illustrator 16.0.0, SVG Export Plug-In . SVG Version: 6.00 Build 0)  -->
<!DOCTYPE svg PUBLIC "-//W3C//DTD SVG 1.1//EN" "http://www.w3.org/Graphics/SVG/1.1/DTD/svg11.dtd">
<svg version="1.1" id="Layer_1" xmlns="http://www.w3.org/2000/svg" xmlns:xlink="http://www.w3.org/1999/xlink" x="0px" y="0px"
	 width="1223.639px" height="202.213px" viewBox="0 0 1223.639 202.213" enable-background="new 0 0 1223.639 202.213"
	 xml:space="preserve">
<g>
	<g>
		<polygon points="366.846,13.738 304.342,13.738 304.342,185.736 419.312,185.736 419.312,130.534 366.846,130.534 		"/>
	</g>
	<g>
		<rect x="436.875" y="13.738" width="62.504" height="171.998"/>
	</g>
	<g>
		<path d="M612.071,91.983c-2.892,9.731-4.338,18.246-4.338,25.546h-1.364c0-7.3-1.451-15.814-4.339-25.546l-22.811-78.245h-65.241
			l66.609,171.998h52.926l66.607-171.998h-65.239L612.071,91.983z"/>
	</g>
	<g>
		<polygon points="776.082,121.867 824.215,121.867 824.215,77.154 776.082,77.154 776.082,60.73 828.775,60.73 828.775,13.738 
			713.123,13.738 713.123,185.736 830.603,185.736 830.603,138.743 776.082,138.743 		"/>
	</g>
	<g>
		<rect x="951.724" y="13.738" width="62.505" height="171.998"/>
	</g>
	<g>
		<polygon points="1162.73,13.738 1031.337,13.738 1031.337,69.625 1065.781,68.028 1065.781,185.736 1128.287,185.736 
			1128.287,68.028 1162.73,69.625 		"/>
	</g>
	<g>
		<path d="M1213.376,139.202c-6.846-5.323-14.757-7.983-23.728-7.983c-8.977,0-16.878,2.66-23.724,7.983
			c-6.845,5.325-10.263,12.316-10.263,20.986c0,8.518,3.418,15.361,10.263,20.528c6.846,5.169,14.747,7.758,23.724,7.758
			c8.971,0,16.882-2.589,23.728-7.758c6.84-5.167,10.263-12.011,10.263-20.528C1223.639,151.519,1220.216,144.527,1213.376,139.202z
			"/>
	</g>
	<g>
		<polygon points="125.71,132.164 103.397,132.164 103.397,144.67 107.437,144.67 107.437,167.662 103.397,167.662 103.397,180.265 
			130.327,180.265 130.327,167.662 125.71,167.662 		"/>
	</g>
	<g>
		<path d="M127.057,118.119c0-4.425-3.942-9.812-10.579-9.812c-6.732,0-10.387,5.388-10.387,9.812c0,4.618,4.328,9.716,10.387,9.716
			C123.306,127.835,127.057,123.41,127.057,118.119z"/>
	</g>
	<g>
		<path d="M215.208,0h-85.404c-2.075,0-3.757,2.088-3.757,4.665v23.531c0,2.576,1.682,4.665,3.757,4.665h6.892L81.453,89.109
			l-0.345,0.385l0.328-1.062l0.197-55.571h7.528c2.075,0,3.757-2.088,3.757-4.665V4.665C92.917,2.088,91.236,0,89.161,0H3.757
			C1.682,0,0,2.088,0,4.665v23.531c0,2.576,1.682,4.665,3.757,4.665h10.322v160.709c0.375,8.088,6.002,8.456,10.52,8.644h19.487
			c0.293,0,0.576-0.062,0.85-0.163c0.39-0.025,0.821-0.24,1.324-0.752l52.074-53.242v-3.386v-12.506V127.1h5.064h0.962
			c-2.134-2.626-3.334-5.824-3.334-8.98c0-3.596,1.463-7.241,4.014-10.002c2.904-3.144,6.966-4.875,11.438-4.875
			c4.412,0,8.475,1.709,11.44,4.812c1.681,1.76,2.91,3.865,3.591,6.082l79.493-81.276h4.206c2.075,0,3.757-2.088,3.757-4.665V23.15
			c0.03-0.288,0.032-0.567,0-0.835V4.665C218.964,2.088,217.283,0,215.208,0z"/>
	</g>
	<g>
		<path d="M213.905,154.002c0-11.736-2.404-23.088-17.985-23.088c-6.637,0-11.157,3.559-14.139,6.926
			c-1.539-2.309-4.616-6.926-14.33-6.926c-6.06,0-10.483,5.195-12.022,7.022l-2.116-5.677h-18.178v12.699h4.04v22.703h-4.04v12.603
			H163.7v-12.603h-5.771v-17.124c0-3.943,1.25-5.771,4.328-5.771c3.847,0,4.039,3.174,4.039,10.967v24.531h24.91v-12.892h-5.771
			v-15.584c0-4.137,0.962-7.022,5.097-7.022c4.521,0,3.655,7.312,3.655,11.929v23.569h24.43v-12.987h-4.712V154.002z"/>
	</g>
</g>
</svg>
