<?xml version="1.0" encoding="utf-8"?>
<!-- Generator: Adobe Illustrator 16.0.0, SVG Export Plug-In . SVG Version: 6.00 Build 0)  -->
<!DOCTYPE svg PUBLIC "-//W3C//DTD SVG 1.1//EN" "http://www.w3.org/Graphics/SVG/1.1/DTD/svg11.dtd">
<svg version="1.1" id="Layer_1" xmlns="http://www.w3.org/2000/svg" xmlns:xlink="http://www.w3.org/1999/xlink" x="0px" y="0px"
	 width="443.297px" height="581.882px" viewBox="0 0 443.297 581.882" enable-background="new 0 0 443.297 581.882"
	 xml:space="preserve">
<g>
	<g>
		<polygon points="30.14,497.623 0,497.623 0,580.562 55.44,580.562 55.44,553.943 30.14,553.943 		"/>
	</g>
	<g>
		<rect x="63.91" y="497.623" width="30.14" height="82.939"/>
	</g>
	<g>
		<path d="M148.39,535.353c-1.395,4.693-2.091,8.799-2.091,12.319h-0.659c0-3.521-0.698-7.626-2.091-12.319l-11-37.73h-31.46
			l32.12,82.939h25.521l32.12-82.939h-31.46L148.39,535.353z"/>
	</g>
	<g>
		<polygon points="227.479,549.763 250.689,549.763 250.689,528.203 227.479,528.203 227.479,520.283 252.889,520.283 
			252.889,497.623 197.119,497.623 197.119,580.562 253.77,580.562 253.77,557.902 227.479,557.902 		"/>
	</g>
	<g>
		<rect x="312.176" y="497.623" width="30.141" height="82.939"/>
	</g>
	<g>
		<polygon points="413.926,497.623 350.566,497.623 350.566,524.572 367.176,523.802 367.176,580.562 397.316,580.562 
			397.316,523.802 413.926,524.572 		"/>
	</g>
	<g>
		<path d="M438.348,558.123c-3.301-2.566-7.115-3.85-11.441-3.85c-4.328,0-8.139,1.283-11.439,3.85
			c-3.301,2.568-4.949,5.939-4.949,10.12c0,4.107,1.648,7.407,4.949,9.899s7.111,3.74,11.439,3.74c4.326,0,8.141-1.248,11.441-3.74
			c3.299-2.492,4.949-5.792,4.949-9.899C443.297,564.062,441.646,560.691,438.348,558.123z"/>
	</g>
	<g>
		<polygon points="248.934,260.972 204.874,260.972 204.874,285.667 212.85,285.667 212.85,331.066 204.874,331.066 
			204.874,355.951 258.049,355.951 258.049,331.066 248.934,331.066 		"/>
	</g>
	<g>
		<path d="M251.592,233.238c0-8.738-7.785-19.375-20.89-19.375c-13.294,0-20.511,10.638-20.511,19.375
			c0,9.118,8.547,19.186,20.511,19.186C244.186,252.424,251.592,243.686,251.592,233.238z"/>
	</g>
	<g>
		<path d="M425.654,64.886c4.098,0,7.418-4.124,7.418-9.21v-9.964c0.062-0.567,0.064-1.121,0-1.648V9.21
			c0-5.086-3.32-9.21-7.418-9.21H257.016c-4.098,0-7.418,4.124-7.418,9.21v46.465c0,5.086,3.32,9.21,7.418,9.21h13.609
			l-109.083,111.07l-0.681,0.759l0.647-2.098l0.389-109.731h14.866c4.097,0,7.418-4.124,7.418-9.21V9.21
			c0-5.086-3.321-9.21-7.418-9.21H8.124C4.026,0,0.705,4.124,0.705,9.21v46.465c0,5.086,3.321,9.21,7.418,9.21h20.381v317.337
			c0.742,15.971,11.853,16.696,20.772,17.067h38.479c0.578,0,1.138-0.121,1.678-0.322c0.771-0.051,1.621-0.474,2.615-1.485
			l102.826-105.132v-6.685v-24.694v-10h10h1.9c-4.213-5.185-6.583-11.502-6.583-17.734c0-7.1,2.889-14.298,7.925-19.75
			c5.734-6.207,13.756-9.625,22.586-9.625c8.712,0,16.734,3.375,22.59,9.503c3.319,3.475,5.746,7.632,7.091,12.008L417.351,64.886
			H425.654z"/>
	</g>
	<g>
		<path d="M323.947,331.066h-11.395v-33.812c0-7.787,2.469-11.396,8.546-11.396c7.597,0,7.976,6.268,7.976,21.654v48.439h49.188
			v-25.454h-11.395v-30.772c0-8.169,1.899-13.867,10.065-13.867c8.926,0,7.217,14.437,7.217,23.555v46.539h48.237v-25.645h-9.305
			v-26.214c0-23.175-4.748-45.589-35.514-45.589c-13.104,0-22.03,7.028-27.918,13.677c-3.038-4.559-9.115-13.677-28.297-13.677
			c-11.965,0-20.7,10.258-23.738,13.867l-4.179-11.208h-35.894v25.074h7.977v44.83h-7.977v24.885h56.404V331.066z"/>
	</g>
</g>
</svg>
