<?xml version="1.0" encoding="utf-8"?>
<!-- Generator: Adobe Illustrator 16.0.0, SVG Export Plug-In . SVG Version: 6.00 Build 0)  -->
<!DOCTYPE svg PUBLIC "-//W3C//DTD SVG 1.1//EN" "http://www.w3.org/Graphics/SVG/1.1/DTD/svg11.dtd">
<svg version="1.1" id="Layer_1" xmlns="http://www.w3.org/2000/svg" xmlns:xlink="http://www.w3.org/1999/xlink" x="0px" y="0px"
	 width="432.414px" height="399.291px" viewBox="0 0 432.414 399.291" enable-background="new 0 0 432.414 399.291"
	 xml:space="preserve">
<g>
	<g>
		<polygon points="248.229,260.972 204.169,260.972 204.169,285.667 212.145,285.667 212.145,331.066 204.169,331.066 
			204.169,355.951 257.344,355.951 257.344,331.066 248.229,331.066 		"/>
	</g>
	<g>
		<path d="M250.887,233.238c0-8.737-7.785-19.375-20.89-19.375c-13.294,0-20.511,10.638-20.511,19.375
			c0,9.119,8.547,19.187,20.511,19.187C243.48,252.424,250.887,243.686,250.887,233.238z"/>
	</g>
	<g>
		<path d="M432.367,44.063V9.21c0-5.086-3.32-9.21-7.418-9.21H256.311c-4.098,0-7.418,4.124-7.418,9.21v46.465
			c0,5.086,3.32,9.21,7.418,9.21h13.609l-109.083,111.07l-0.681,0.759l0.647-2.098l0.389-109.731h14.866
			c4.097,0,7.418-4.124,7.418-9.21V9.21c0-5.086-3.321-9.21-7.418-9.21H7.418C3.321,0,0,4.124,0,9.21v46.465
			c0,5.086,3.321,9.21,7.418,9.21h20.381v317.337c0.742,15.971,11.853,16.696,20.772,17.067H87.05c0.578,0,1.138-0.121,1.678-0.322
			c0.771-0.051,1.621-0.474,2.615-1.485l102.826-105.132v-6.685v-24.694v-10h10h1.9c-4.213-5.186-6.583-11.502-6.583-17.734
			c0-7.1,2.889-14.299,7.925-19.75c5.734-6.207,13.756-9.625,22.586-9.625c8.712,0,16.734,3.375,22.59,9.503
			c3.319,3.475,5.746,7.632,7.091,12.009L416.646,64.886h8.304c4.098,0,7.418-4.124,7.418-9.21v-9.964
			C432.429,45.145,432.432,44.591,432.367,44.063z"/>
	</g>
	<g>
		<path d="M422.377,304.092c0-23.175-4.748-45.589-35.514-45.589c-13.104,0-22.03,7.027-27.918,13.676
			c-3.038-4.559-9.115-13.676-28.297-13.676c-11.965,0-20.7,10.258-23.738,13.866l-4.179-11.208h-35.894v25.074h7.977v44.83h-7.977
			v24.885h56.404v-24.885h-11.395v-33.812c0-7.787,2.469-11.396,8.546-11.396c7.597,0,7.976,6.268,7.976,21.654v48.439h49.188
			v-25.454h-11.395v-30.772c0-8.169,1.899-13.867,10.065-13.867c8.926,0,7.217,14.437,7.217,23.555v46.539h48.237v-25.645h-9.305
			V304.092z"/>
	</g>
</g>
</svg>
