<?xml version="1.0" encoding="utf-8"?>
<!-- Generator: Adobe Illustrator 16.0.0, SVG Export Plug-In . SVG Version: 6.00 Build 0)  -->
<!DOCTYPE svg PUBLIC "-//W3C//DTD SVG 1.1//EN" "http://www.w3.org/Graphics/SVG/1.1/DTD/svg11.dtd">
<svg version="1.1" id="Layer_1" xmlns="http://www.w3.org/2000/svg" xmlns:xlink="http://www.w3.org/1999/xlink" x="0px" y="0px"
	 width="524px" height="483px" viewBox="0 0 524 483" enable-background="new 0 0 524 483" xml:space="preserve">
<path d="M469,0H55C24.624,0,0,24.625,0,55v373c0,30.376,24.624,55,55,55h414c30.376,0,55-24.624,55-55V55
	C524,24.625,499.376,0,469,0z M301.666,403.388h-53.175v-24.885h7.976v-45.399h-7.976V308.41h44.06v70.094h9.115V403.388z
	 M253.809,280.675c0-8.737,7.217-19.375,20.511-19.375c13.104,0,20.89,10.638,20.89,19.375c0,10.448-7.405,19.187-20.89,19.187
	C262.355,299.861,253.809,289.794,253.809,280.675z M476.004,403.388h-48.237v-46.539c0-9.117,1.709-23.555-7.217-23.555
	c-8.166,0-10.064,5.698-10.064,13.867v30.771h11.395v25.454h-49.188v-48.438c0-15.388-0.379-21.654-7.976-21.654
	c-6.077,0-8.546,3.609-8.546,11.396v33.812h11.395v24.885H311.16v-24.885h7.977v-44.83h-7.977v-25.074h35.895l4.178,11.208
	c3.039-3.607,11.773-13.866,23.738-13.866c19.182,0,25.26,9.117,28.297,13.677c5.889-6.648,14.813-13.677,27.918-13.677
	c30.767,0,35.515,22.415,35.515,45.59v26.214h9.305L476.004,403.388L476.004,403.388z M476.689,93.149v9.964
	c0,5.086-3.32,9.21-7.418,9.21h-8.305L304,272.812c-1.346-4.377-3.771-8.535-7.091-12.01c-5.854-6.128-13.878-9.503-22.591-9.503
	c-8.829,0-16.852,3.418-22.585,9.625c-5.036,5.451-7.925,12.65-7.925,19.75c0,6.232,2.37,12.55,6.583,17.734h-1.9h-10v10v24.693
	v6.686L135.666,444.92c-0.994,1.012-1.844,1.436-2.615,1.485c-0.54,0.201-1.1,0.321-1.678,0.321H92.894
	c-8.919-0.37-20.03-1.097-20.772-17.066V112.323H51.741c-4.097,0-7.418-4.124-7.418-9.21V56.648c0-5.086,3.321-9.21,7.418-9.21
	H220.38c4.097,0,7.418,4.124,7.418,9.21v46.465c0,5.086-3.321,9.21-7.418,9.21h-14.866l-0.389,109.731l-0.647,2.098l0.681-0.759
	l109.083-111.07h-13.609c-4.098,0-7.418-4.124-7.418-9.21V56.648c0-5.086,3.32-9.21,7.418-9.21h168.64
	c4.098,0,7.418,4.124,7.418,9.21v34.853C476.754,92.029,476.751,92.582,476.689,93.149z"/>
</svg>
